<?xml version="1.0" encoding="UTF-8" standalone="no"?>
<!-- Created with Inkscape (http://www.inkscape.org/) -->

<svg
   xmlns:dc="http://purl.org/dc/elements/1.1/"
   xmlns:cc="http://creativecommons.org/ns#"
   xmlns:rdf="http://www.w3.org/1999/02/22-rdf-syntax-ns#"
   xmlns:svg="http://www.w3.org/2000/svg"
   xmlns="http://www.w3.org/2000/svg"
   xmlns:sodipodi="http://sodipodi.sourceforge.net/DTD/sodipodi-0.dtd"
   xmlns:inkscape="http://www.inkscape.org/namespaces/inkscape"
   width="16mm"
   height="16mm"
   viewBox="0 0 16 16"
   version="1.1"
   id="svg7409"
   inkscape:version="0.92.1 r15371"
   sodipodi:docname="ctparental_symbolic.svg">
  <defs
     id="defs7403">
    <clipPath
       clipPathUnits="userSpaceOnUse"
       id="clipPath4523">
      <path
         style="fill:none;fill-rule:nonzero;stroke-width:7.5"
         id="path4525"
         sodipodi:type="arc"
         sodipodi:cx="320"
         sodipodi:cy="-320"
         sodipodi:rx="320"
         sodipodi:ry="320"
         sodipodi:start="0"
         sodipodi:end="6.2820683"
         sodipodi:open="true"
         d="M 640,-320 A 320,320 0 0 1 320.08936,-1.247705e-5 320,320 0 0 1 4.99082e-5,-319.82128 320,320 0 0 1 319.73192,-639.99989 320,320 0 0 1 639.9998,-320.35744"
         transform="scale(1,-1)" />
    </clipPath>
  </defs>
  <sodipodi:namedview
     id="base"
     pagecolor="#121211"
     bordercolor="#666666"
     borderopacity="1.0"
     inkscape:pageopacity="1"
     inkscape:pageshadow="2"
     inkscape:zoom="3.4571107"
     inkscape:cx="-31.631473"
     inkscape:cy="22.806697"
     inkscape:document-units="mm"
     inkscape:current-layer="layer1"
     showgrid="true"
     inkscape:snap-grids="true"
     inkscape:window-width="1307"
     inkscape:window-height="801"
     inkscape:window-x="533"
     inkscape:window-y="165"
     inkscape:window-maximized="0"
     inkscape:pagecheckerboard="false">
    <inkscape:grid
       type="xygrid"
       id="grid8026" />
  </sodipodi:namedview>
  <metadata
     id="metadata7406">
    <rdf:RDF>
      <cc:Work
         rdf:about="">
        <dc:format>image/svg+xml</dc:format>
        <dc:type
           rdf:resource="http://purl.org/dc/dcmitype/StillImage" />
        <dc:title />
      </cc:Work>
    </rdf:RDF>
  </metadata>
  <g
     inkscape:label="Calque 1"
     inkscape:groupmode="layer"
     id="layer1"
     transform="translate(0,-281)">
    <path
       inkscape:connector-curvature="0"
       transform="matrix(0.02480469,0,0,-0.02480469,0,297)"
       d="M 0,320 V 0 H 320 640 V 320 640 H 320 0 Z m 425,232 90,-17 3,-144 C 520,255 519,246 496,206 472,166 417,119 353,86 322,71 318,71 288,86 c -65,33 -120,80 -144,120 -23,40 -24,49 -22,185 l 3,144 85,17 c 108,21 108,21 215,0 z"
       id="path4"
       clip-path="url(#clipPath4523)"
       style="fill:#cccccc" />
    <path
       style="stroke-width:0.02480469;fill:#cccccc"
       inkscape:connector-curvature="0"
       d="m 5.382617,284.79609 c -0.570508,0.62011 -0.520898,1.43867 0.07442,2.03399 0.595312,0.5953 1.190624,0.62011 1.934765,0.0992 0.644922,-0.44648 0.7441411,-1.6123 0.148828,-2.18281 -0.520898,-0.54571 -1.661914,-0.49609 -2.158008,0.0496 z"
       id="path6" />
    <path
       style="stroke-width:0.02480469;fill:#cccccc"
       inkscape:connector-curvature="0"
       d="m 5.084961,287.87187 c -0.644922,0.37207 -0.868164,0.69453 -0.868164,1.36426 0,0.5457 0.07441,0.57051 2.133203,0.57051 1.513086,0 2.058789,-0.0744 1.934765,-0.27285 -0.09922,-0.17364 -0.173632,-0.59532 -0.148827,-0.96739 0,-0.5209 -0.124024,-0.74414 -0.520899,-0.84336 -0.843359,-0.22324 -1.984375,-0.14883 -2.530078,0.14883 z"
       id="path8" />
    <path
       style="stroke-width:0.02480469;fill:#cccccc"
       inkscape:connector-curvature="0"
       d="m 8.7312501,287.87187 c -0.496094,0.4961 -0.347265,1.63711 0.223242,1.95957 0.818555,0.42168 1.7115239,-0.0744 1.7115239,-0.96738 0,-0.81856 -0.396875,-1.28985 -1.1162109,-1.28985 -0.297656,0 -0.644922,0.12403 -0.818555,0.29766 z"
       id="path10" />
    <path
       style="stroke-width:0.02480469;fill:#cccccc"
       inkscape:connector-curvature="0"
       d="m 8.2351561,290.69961 c -0.297656,0.19843 -0.545703,0.59531 -0.545703,0.86816 0,0.42168 0.173633,0.47129 1.860352,0.47129 1.6867179,0 1.8603509,-0.0496 1.8603509,-0.47129 0,-0.64492 -0.917773,-1.26504 -1.8603509,-1.26504 -0.42168,0 -1.016993,0.17363 -1.314649,0.39688 z"
       id="path12" />
    <path
       style="fill:#cccccc;fill-rule:nonzero;stroke-width:0.04756491"
       d="m 4.619202,289.7264 c -0.09802,-0.019 -0.223446,-0.0754 -0.278731,-0.12534 -0.09027,-0.0815 -0.0984,-0.12955 -0.07972,-0.47127 0.01439,-0.26322 0.05215,-0.44125 0.122505,-0.57756 0.206968,-0.40098 0.809933,-0.77694 1.407481,-0.87757 0.467972,-0.0788 1.503611,-0.0328 1.832896,0.0815 0.3850481,0.13359 0.443122,0.24012 0.482839,0.88568 0.01812,0.29455 0.06049,0.6272 0.09416,0.73922 0.07751,0.25794 0.04683,0.28905 -0.340302,0.34501 -0.3537359,0.0511 -2.9779669,0.0514 -3.24113,3.6e-4 z"
       id="path4527"
       inkscape:connector-curvature="0" />
    <path
       style="fill:#cccccc;fill-rule:nonzero;stroke-width:0.04756491"
       d="m 6.143009,287.2311 c -0.368494,-0.098 -0.771473,-0.45611 -0.994291,-0.8836 -0.331354,-0.63572 -0.01123,-1.51193 0.666992,-1.82562 0.320865,-0.14841 1.085445,-0.14607 1.366346,0.004 0.266353,0.14246 0.488308,0.37328 0.607291,0.63154 0.144477,0.31359 0.138816,0.93912 -0.01126,1.24404 -0.149496,0.30373 -0.403767,0.54421 -0.743751,0.70342 -0.3580909,0.16768 -0.6040049,0.20245 -0.891331,0.12605 z"
       id="path4529"
       inkscape:connector-curvature="0" />
    <path
       style="fill:#cccccc;fill-rule:nonzero;stroke-width:0.04756491"
       d="m 9.1761371,289.89411 c -0.2882391,-0.10714 -0.418408,-0.22618 -0.5704,-0.52163 -0.118923,-0.23116 -0.139565,-0.32563 -0.139565,-0.63875 0,-0.31392 0.01973,-0.40372 0.135381,-0.61621 0.369232,-0.6784 1.4729499,-0.69222 1.8649329,-0.0233 0.111048,0.18949 0.132569,0.28587 0.145748,0.65275 0.01429,0.39775 0.0054,0.44837 -0.117131,0.66662 -0.248145,0.44203 -0.841248,0.65812 -1.3189659,0.48056 z"
       id="path4531"
       inkscape:connector-curvature="0" />
    <path
       style="fill:#cccccc;fill-rule:nonzero;stroke-width:0.04756491"
       d="m 8.198306,291.97579 c -0.384017,-0.0605 -0.475649,-0.13461 -0.475649,-0.38478 0,-0.66258 0.8583791,-1.24718 1.8312491,-1.24718 0.9491129,0 1.8312489,0.59887 1.8312489,1.2432 0,0.3662 -0.255882,0.42274 -1.8734149,0.41397 -0.6569871,-0.004 -1.248032,-0.0149 -1.3134341,-0.0252 z"
       id="path4533"
       inkscape:connector-curvature="0" />
    <path
       style="fill:#cccccc;fill-rule:nonzero;stroke-width:0.01681674"
       d="m 10.61798,288.87533 c -9.84e-4,-0.15724 -0.0056,-0.32751 -0.0101,-0.37838 -0.0072,-0.0808 -0.006,-0.0861 0.0099,-0.042 0.02489,0.069 0.03897,0.55552 0.01849,0.63903 -0.01294,0.0527 -0.01689,0.006 -0.01833,-0.21861 z"
       id="path4535"
       inkscape:connector-curvature="0" />
    <path
       style="fill:#cccccc;fill-rule:nonzero;stroke-width:0.00594562"
       d="m 9.432332,289.97841 c -0.1832999,-0.0265 -0.3103789,-0.0641 -0.4459199,-0.13173 -0.129672,-0.0648 -0.226587,-0.15396 -0.321246,-0.29569 -0.26333,-0.39431 -0.310583,-1.00942 -0.109667,-1.42759 0.110326,-0.22962 0.2739899,-0.37023 0.543879,-0.46725 0.256235,-0.0921 0.539044,-0.10652 0.7927679,-0.0404 0.454596,0.11849 0.720659,0.49018 0.767707,1.07248 0.01923,0.23796 -0.0045,0.43918 -0.07181,0.60897 -0.13746,0.34671 -0.423739,0.58528 -0.7973719,0.66448 -0.06366,0.0135 -0.08998,0.0157 -0.206722,0.0174 -0.07358,7.1e-4 -0.141803,7.1e-4 -0.151614,-6.7e-4 z"
       id="path4537"
       inkscape:connector-curvature="0" />
    <path
       style="fill:#cccccc;fill-rule:nonzero;stroke-width:0.01681674"
       d="m 5.013707,289.78997 c -0.4478,-0.0268 -0.665373,-0.0887 -0.740781,-0.2107 -0.04667,-0.0755 -0.06439,-0.27125 -0.04706,-0.51989 0.03412,-0.48943 0.213871,-0.77419 0.681431,-1.0795 0.17844,-0.11652 0.347603,-0.1953 0.534127,-0.24876 0.597306,-0.1712 1.407146,-0.18471 2.066881,-0.0345 0.30871,0.0703 0.458329,0.16316 0.538378,0.33417 0.06499,0.13883 0.08025,0.24688 0.0954,0.67538 0.01525,0.43129 0.03813,0.57402 0.125176,0.78083 0.0232,0.0551 0.03779,0.11163 0.03244,0.12558 -0.02694,0.0702 -0.250631,0.1286 -0.620542,0.16197 -0.268878,0.0243 -2.319599,0.0361 -2.665452,0.0154 z"
       id="path4539"
       inkscape:connector-curvature="0" />
    <path
       style="fill:#cccccc;fill-rule:nonzero;stroke-width:0.01681674"
       d="m 6.197685,287.27811 c -0.351031,-0.0802 -0.736834,-0.37248 -0.979399,-0.74196 -0.216382,-0.32961 -0.291307,-0.75379 -0.195929,-1.10924 0.07126,-0.26559 0.298266,-0.6099 0.500222,-0.75873 0.611352,-0.45052 1.584449,-0.39955 2.0485611,0.1073 0.2512729,0.27442 0.360658,0.57799 0.3589409,0.99617 -0.0012,0.28612 -0.04102,0.46107 -0.159649,0.70103 -0.1037109,0.20979 -0.244224,0.36864 -0.443189,0.50103 -0.165905,0.11038 -0.45017,0.24814 -0.589821,0.28583 -0.14179,0.0383 -0.412776,0.0476 -0.5397369,0.0186 z"
       id="path4541"
       inkscape:connector-curvature="0" />
    <path
       style="fill:#cccccc;fill-rule:nonzero;stroke-width:0.01681674"
       d="m 8.5692961,292.0263 c -0.486648,-0.0205 -0.7083511,-0.0708 -0.801758,-0.18177 -0.172122,-0.20456 -0.05211,-0.64374 0.264773,-0.9689 0.232512,-0.23859 0.512849,-0.38442 0.951919,-0.49516 0.382823,-0.0966 0.725396,-0.10235 1.0829059,-0.0183 0.627567,0.14752 1.173627,0.55523 1.303689,0.97341 0.0481,0.15464 0.04579,0.37414 -0.0049,0.46489 -0.08119,0.14539 -0.301924,0.20142 -0.895215,0.22719 -0.422421,0.0184 -1.4512269,0.0177 -1.9014419,-0.001 z"
       id="path4543"
       inkscape:connector-curvature="0" />
    <path
       style="fill:#cccccc;fill-rule:nonzero;stroke-width:0.01681674"
       d="m 8.5598761,292.02615 c -0.471537,-0.0207 -0.691982,-0.0701 -0.7908621,-0.17727 -0.177035,-0.19191 -0.05364,-0.64803 0.2632971,-0.97325 0.232742,-0.23883 0.51247,-0.38423 0.95338,-0.49559 0.456644,-0.11532 0.8558629,-0.10254 1.2857909,0.0412 0.557603,0.1864 0.996899,0.55674 1.106048,0.93242 0.01516,0.0522 0.02642,0.15314 0.02626,0.23544 -2.23e-4,0.11749 -0.0072,0.15651 -0.03784,0.21136 -0.08119,0.1454 -0.301923,0.20141 -0.895214,0.22719 -0.424699,0.0184 -1.4745649,0.0177 -1.9108619,-10e-4 z"
       id="path4545"
       inkscape:connector-curvature="0" />
    <path
       style="fill:#cccccc;fill-rule:nonzero;stroke-width:0.01681674"
       d="m 8.5450771,292.02649 c -0.45509,-0.0207 -0.6796301,-0.0721 -0.7753411,-0.17761 -0.223172,-0.24589 0.03066,-0.8586 0.481192,-1.16156 0.281099,-0.18902 0.697022,-0.33027 1.107357,-0.37606 0.824748,-0.0921 1.825039,0.41649 2.012397,1.02308 0.04822,0.15613 0.046,0.37527 -0.0047,0.46611 -0.07941,0.14222 -0.296578,0.19949 -0.8603,0.22685 -0.383561,0.0186 -1.5443219,0.0181 -1.960576,-7e-4 z"
       id="path4547"
       inkscape:connector-curvature="0" />
    <path
       style="fill:#cccccc;fill-rule:nonzero;stroke-width:0.01681674"
       d="m 8.5284051,292.02774 c -0.442548,-0.023 -0.6647301,-0.0754 -0.7586691,-0.17886 -0.219761,-0.24212 0.02143,-0.84323 0.4595411,-1.14526 0.164754,-0.11358 0.324775,-0.19194 0.536969,-0.26293 0.63738,-0.21325 1.2492709,-0.17601 1.8222089,0.11091 0.397562,0.19908 0.693383,0.4951 0.782227,0.78274 0.04841,0.15675 0.04603,0.37554 -0.0051,0.46577 -0.0662,0.11689 -0.219244,0.17488 -0.558537,0.21167 -0.207394,0.0225 -1.9217129,0.0344 -2.2786679,0.016 z"
       id="path4549"
       inkscape:connector-curvature="0" />
    <path
       style="fill:#cccccc;fill-rule:nonzero;stroke-width:0.01681674"
       d="m 5.007522,289.79006 c -0.437352,-0.0256 -0.659345,-0.089 -0.733976,-0.20978 -0.0692,-0.11196 -0.07367,-0.55509 -0.0082,-0.80684 0.08204,-0.31526 0.275653,-0.55502 0.639006,-0.79131 0.188746,-0.12274 0.311325,-0.18119 0.504938,-0.24077 0.517555,-0.15926 1.276846,-0.19413 1.891447,-0.0869 0.448167,0.0782 0.624385,0.16103 0.731438,0.3437 0.07102,0.12118 0.09295,0.25942 0.1083111,0.68275 0.01562,0.43058 0.03901,0.58388 0.120113,0.78736 0.03681,0.0923 0.0449,0.13089 0.03236,0.15431 -0.03478,0.065 -0.243947,0.1171 -0.613841,0.15292 -0.233725,0.0226 -2.337301,0.034 -2.6716381,0.0145 z"
       id="path4551"
       inkscape:connector-curvature="0" />
    <path
       style="fill:#cccccc;fill-rule:nonzero;stroke-width:0.01681674"
       d="m 4.992725,289.79043 c -0.421628,-0.0259 -0.645829,-0.0915 -0.719179,-0.21015 -0.07014,-0.1135 -0.07447,-0.54996 -0.008,-0.80684 0.06013,-0.23239 0.2022321,-0.45188 0.398541,-0.6156 0.12649,-0.10549 0.336641,-0.24407 0.475751,-0.31371 0.480608,-0.24063 1.405541,-0.3208 2.169358,-0.18803 0.438543,0.0762 0.617446,0.16088 0.7225161,0.34187 0.07282,0.12543 0.09486,0.26004 0.110359,0.6739 0.01599,0.42697 0.04269,0.60638 0.118526,0.79644 0.03685,0.0923 0.04494,0.13089 0.03241,0.15431 -0.03478,0.065 -0.243768,0.11706 -0.6138421,0.15295 -0.230676,0.0224 -2.371895,0.0342 -2.686434,0.0148 z"
       id="path4553"
       inkscape:connector-curvature="0" />
    <path
       style="fill:#cccccc;fill-rule:nonzero;stroke-width:0.01681674"
       d="m 6.197685,287.27811 c -0.351031,-0.0802 -0.736834,-0.37248 -0.979399,-0.74196 -0.216382,-0.32961 -0.291307,-0.75379 -0.195929,-1.10924 0.07126,-0.26558 0.2982491,-0.60987 0.500222,-0.75874 0.420858,-0.3102 1.011556,-0.39355 1.540578,-0.21736 0.4118261,0.13715 0.718909,0.48006 0.828922,0.92565 0.05282,0.21393 0.05291,0.55891 2.04e-4,0.77357 -0.08513,0.34671 -0.284088,0.63674 -0.565042,0.82368 -0.165904,0.11038 -0.450169,0.24814 -0.589819,0.28583 -0.141791,0.0383 -0.412777,0.0476 -0.539738,0.0186 z"
       id="path4555"
       inkscape:connector-curvature="0" />
    <path
       style="fill:#cccccc;fill-rule:nonzero;stroke-width:0.01681674"
       d="m 6.197685,287.27811 c -0.458181,-0.10468 -0.958692,-0.56587 -1.130872,-1.04202 -0.09377,-0.25931 -0.110584,-0.56194 -0.04496,-0.80918 0.06964,-0.26235 0.298047,-0.60876 0.500724,-0.75939 0.138337,-0.10281 0.373212,-0.21246 0.550583,-0.25705 0.185491,-0.0466 0.4881261,-0.0626 0.673654,-0.0356 0.602798,0.0879 1.0060911,0.4425 1.1467021,1.0083 0.05134,0.20659 0.05078,0.55495 -0.0012,0.76679 -0.08513,0.34671 -0.284088,0.63675 -0.565041,0.82369 -0.165905,0.11038 -0.45017,0.24813 -0.589821,0.28582 -0.14179,0.0382 -0.412776,0.0476 -0.5397369,0.0186 z"
       id="path4557"
       inkscape:connector-curvature="0" />
    <path
       style="fill:#cccccc;fill-rule:nonzero;stroke-width:0.01681674"
       d="m 4.992725,289.78944 c -0.417266,-0.0239 -0.645592,-0.0901 -0.718677,-0.20835 -0.07698,-0.12457 -0.07581,-0.5915 0.0021,-0.84614 0.08708,-0.2845 0.276627,-0.51924 0.585155,-0.72466 0.332737,-0.22155 0.582857,-0.31102 1.069455,-0.38259 0.30479,-0.0449 0.945384,-0.0408 1.260687,0.008 0.450175,0.0695 0.660332,0.14611 0.783189,0.28568 0.116913,0.13282 0.166941,0.34523 0.16697,0.70891 3.4e-5,0.36248 0.0429,0.65008 0.128211,0.86002 0.05057,0.12446 0.03903,0.15158 -0.0841,0.19765 -0.1349389,0.0505 -0.395595,0.0835 -0.809285,0.10257 -0.423504,0.0195 -2.038313,0.0189 -2.383733,-7e-4 z"
       id="path4559"
       inkscape:connector-curvature="0" />
    <path
       style="fill:#cccccc;fill-rule:nonzero;stroke-width:0.01681674"
       d="m 4.988482,289.79039 c -0.501038,-0.0302 -0.698359,-0.10657 -0.750851,-0.29051 -0.02902,-0.10172 -0.02263,-0.49587 0.01071,-0.65918 0.01584,-0.0776 0.05914,-0.2002 0.102311,-0.2897 0.0606,-0.12562 0.101236,-0.1821 0.213401,-0.29657 0.154612,-0.15778 0.400378,-0.32778 0.621141,-0.42965 0.564134,-0.26032 1.591036,-0.31136 2.375197,-0.11806 0.323346,0.0797 0.471453,0.20648 0.538937,0.46131 0.01725,0.0652 0.03234,0.23499 0.0426,0.47946 0.01788,0.42635 0.04441,0.60972 0.116958,0.80851 0.03662,0.10034 0.04563,0.14511 0.0337,0.16741 -0.04465,0.0834 -0.3629801,0.14142 -0.916123,0.1669 -0.412003,0.019 -2.073851,0.0191 -2.387977,8e-5 z"
       id="path4561"
       inkscape:connector-curvature="0" />
    <path
       style="fill:#cccccc;fill-rule:nonzero;stroke-width:0.01681674"
       d="m 5.072566,289.79645 c -0.181556,-0.009 -0.459543,-0.0415 -0.546191,-0.0643 -0.116498,-0.0307 -0.230446,-0.10074 -0.261404,-0.16061 -0.04253,-0.0822 -0.06033,-0.29158 -0.04293,-0.50503 0.02046,-0.25105 0.03977,-0.32761 0.130654,-0.518 0.06224,-0.13039 0.09909,-0.18169 0.212597,-0.29593 0.157592,-0.15862 0.386915,-0.31814 0.607761,-0.42275 0.553267,-0.26209 1.631581,-0.31716 2.395291,-0.12234 0.317056,0.0809 0.464553,0.20887 0.530821,0.46061 0.01661,0.0631 0.03283,0.23957 0.04328,0.47087 0.01907,0.42206 0.04936,0.63256 0.118259,0.82178 0.03521,0.0967 0.04378,0.14049 0.03188,0.16273 -0.0437,0.0816 -0.362125,0.14126 -0.891954,0.16698 -0.301368,0.0146 -2.055527,0.0192 -2.328061,0.006 z"
       id="path4563"
       inkscape:connector-curvature="0" />
    <path
       style="fill:#cccccc;fill-rule:nonzero;stroke-width:0.01681674"
       d="m 4.948667,289.79049 c -0.2648219,-0.0181 -0.4588419,-0.0574 -0.565588,-0.11444 -0.06588,-0.0352 -0.09311,-0.0631 -0.125778,-0.12904 -0.03896,-0.0786 -0.04156,-0.10008 -0.03973,-0.32793 0.0025,-0.3062 0.03369,-0.46206 0.134315,-0.67064 0.06246,-0.12946 0.1007041,-0.18249 0.213401,-0.29593 0.1575921,-0.15862 0.3869151,-0.31813 0.607761,-0.42275 0.553728,-0.2623 1.610408,-0.31746 2.384867,-0.12448 0.189692,0.0472 0.3211511,0.11148 0.397248,0.19404 0.1362931,0.14787 0.1649181,0.25821 0.187477,0.72277 0.02088,0.42982 0.05002,0.63825 0.115499,0.82602 0.02741,0.0786 0.04553,0.15413 0.04026,0.16786 -0.02502,0.0652 -0.239646,0.12451 -0.5772,0.1595 -0.218529,0.0226 -2.481518,0.0349 -2.772534,0.015 z"
       id="path4565"
       inkscape:connector-curvature="0" />
    <path
       style="fill:#cccccc;fill-rule:nonzero;stroke-width:0.01681674"
       d="m 9.4028751,289.97515 c -0.158156,-0.0209 -0.373956,-0.0953 -0.484884,-0.16699 -0.198612,-0.12837 -0.368388,-0.39607 -0.442916,-0.69839 -0.05194,-0.21069 -0.05238,-0.57964 -9.14e-4,-0.76775 0.107005,-0.39109 0.326875,-0.60677 0.73764,-0.72356 0.104004,-0.0296 0.177049,-0.0378 0.342416,-0.0383 0.244176,-7e-4 0.3412729,0.0191 0.5299939,0.1089 0.37539,0.17856 0.580639,0.58829 0.579619,1.15707 -3.72e-4,0.2109 -0.03394,0.36451 -0.117895,0.53959 -0.09229,0.19245 -0.286766,0.38973 -0.470399,0.47717 -0.215429,0.10257 -0.4502549,0.14177 -0.6726699,0.11227 z"
       id="path4567"
       inkscape:connector-curvature="0" />
    <path
       style="fill:#cccccc;fill-rule:nonzero;stroke-width:0.01681674"
       d="m 9.394467,289.97514 c -0.15573,-0.0231 -0.3701749,-0.0983 -0.4764759,-0.16698 -0.198379,-0.12822 -0.367811,-0.39517 -0.4432691,-0.69839 -0.05205,-0.20917 -0.05228,-0.57788 -4.639e-4,-0.76775 0.07075,-0.25927 0.1913839,-0.43948 0.3775139,-0.56398 0.214777,-0.14365 0.5165101,-0.21989 0.7949421,-0.20087 0.4705719,0.0321 0.7858679,0.26981 0.9341949,0.70419 0.08861,0.2595 0.110698,0.63991 0.05076,0.87425 -0.100418,0.39263 -0.401343,0.69716 -0.783158,0.79253 -0.1350199,0.0337 -0.3304659,0.0453 -0.4540519,0.027 z"
       id="path4569"
       inkscape:connector-curvature="0" />
    <path
       style="fill:#cccccc;fill-rule:nonzero;stroke-width:0.01681674"
       d="m 9.392929,289.97591 c -0.1382729,-0.0193 -0.3486499,-0.0911 -0.458679,-0.15657 -0.20261,-0.1206 -0.381149,-0.39637 -0.4593849,-0.70957 -0.0542,-0.21699 -0.05396,-0.58098 5.21e-4,-0.77281 0.11058,-0.38938 0.329321,-0.6034 0.734098,-0.71825 0.175854,-0.0499 0.513213,-0.0537 0.6810779,-0.008 0.322858,0.0887 0.565004,0.31619 0.683308,0.64212 0.0928,0.25566 0.118921,0.66338 0.05781,0.90233 -0.09928,0.38819 -0.403345,0.69846 -0.777595,0.79347 -0.1272039,0.0323 -0.3350889,0.0444 -0.4611529,0.0269 z"
       id="path4571"
       inkscape:connector-curvature="0" />
    <path
       style="fill:#cccccc;fill-rule:nonzero;stroke-width:0.01681674"
       d="m 8.498609,292.02591 c -0.634067,-0.033 -0.81149,-0.12793 -0.810842,-0.43398 4.47e-4,-0.21307 0.118945,-0.47139 0.319697,-0.69693 0.379572,-0.42645 1.288433,-0.68847 1.941345,-0.55968 0.693653,0.13682 1.28359,0.55132 1.421873,0.99902 0.04822,0.15613 0.046,0.37527 -0.0047,0.46611 -0.08024,0.14369 -0.289404,0.19995 -0.843411,0.22685 -0.391371,0.019 -1.6484079,0.0181 -2.0239329,-0.001 z"
       id="path4573"
       inkscape:connector-curvature="0" />
    <path
       style="fill:#cccccc;fill-rule:nonzero;stroke-width:0.01681674"
       d="M 8.5031791,292.02693 C 7.836584,291.99253 7.665477,291.89057 7.69162,291.54378 c 0.02129,-0.28241 0.227878,-0.61413 0.5137841,-0.825 0.389926,-0.28758 1.074512,-0.46496 1.574647,-0.408 0.6140629,0.07 1.2037369,0.38452 1.4716489,0.78508 0.107817,0.1612 0.154329,0.30849 0.153877,0.48728 -1.86e-4,0.0747 -0.0056,0.15039 -0.01207,0.16817 -0.06576,0.18124 -0.26204,0.24478 -0.851729,0.2757 -0.359856,0.0188 -1.6732459,0.0188 -2.0385969,-8e-5 z"
       id="path4575"
       inkscape:connector-curvature="0" />
    <path
       style="fill:#cccccc;fill-rule:nonzero;stroke-width:0.01681674"
       d="m 8.494771,292.02688 c -0.407821,-0.0221 -0.601384,-0.0664 -0.706971,-0.16177 -0.201861,-0.18237 -0.09479,-0.63396 0.233727,-0.98575 0.328662,-0.35195 1.071416,-0.61169 1.650416,-0.57715 0.774714,0.0462 1.536557,0.50912 1.69897,1.03232 0.03523,0.11347 0.04789,0.34706 0.02259,0.41678 -0.0654,0.18025 -0.266147,0.24576 -0.846623,0.27629 -0.35145,0.0185 -1.706233,0.018 -2.052111,-7.1e-4 z"
       id="path4577"
       inkscape:connector-curvature="0" />
    <path
       style="fill:#cccccc;fill-rule:nonzero;stroke-width:0.01681674"
       d="m 7.410092,296.97678 c -1.347986,-0.0893 -2.731685,-0.5579 -3.851033,-1.3042 -0.470675,-0.31381 -0.80163,-0.58606 -1.220682,-1.00414 -0.423214,-0.42222 -0.729654,-0.79611 -1.030509,-1.25732 -1.03876,-1.59241 -1.473364,-3.47085 -1.236409,-5.34399 0.220467,-1.74279 1.010519,-3.35695 2.2514491,-4.59993 0.390846,-0.39149 0.755995,-0.69312 1.199231,-0.99061 2.5519169,-1.71279 5.8806809,-1.79224 8.5125549,-0.20317 1.463697,0.88375 2.614657,2.23321 3.251789,3.8126 0.269673,0.6685 0.439192,1.33611 0.535068,2.10724 0.04345,0.34941 0.04362,1.3803 2.98e-4,1.73213 -0.120496,0.97847 -0.353908,1.78089 -0.76066,2.615 -1.238774,2.54028 -3.711631,4.21335 -6.5487499,4.4307 -0.205668,0.0158 -0.896566,0.0193 -1.102339,0.006 z m 0.8529,-1.88898 c 0.555565,-0.18614 1.671249,-0.8596 2.430538,-1.46716 0.800902,-0.64086 1.372123,-1.27719 1.724521,-1.92109 0.253161,-0.46257 0.347751,-0.76948 0.411058,-1.33372 0.04463,-0.39781 0.03968,-2.70257 -0.0106,-4.93888 -0.021,-0.93415 -0.03949,-1.69975 -0.04107,-1.70134 -0.0015,-0.001 -0.528808,-0.1023 -1.171605,-0.22382 -0.642799,-0.12151 -1.361697,-0.25857 -1.597552,-0.30459 -1.023074,-0.19956 -1.484046,-0.26489 -1.967558,-0.27884 -0.511198,-0.0148 -0.917195,0.0267 -1.774165,0.1813 -0.394006,0.0711 -3.157896,0.61959 -3.166869,0.6285 -0.0084,0.008 -0.06805,2.86969 -0.0872,4.18191 -0.02433,1.6669 0.0018,2.42033 0.100902,2.90649 0.09624,0.47226 0.402131,1.06972 0.809391,1.58088 0.172486,0.21649 0.594111,0.6506 0.858554,0.88398 0.677131,0.59757 1.475402,1.13668 2.326054,1.57092 0.625139,0.31911 0.799726,0.35468 1.155601,0.23546 z"
       id="path4579"
       inkscape:connector-curvature="0" />
  </g>
</svg>
